<?xml version="1.0" encoding="UTF-8" standalone="no"?>
<!-- Created with Inkscape (http://www.inkscape.org/) -->
<svg
   xmlns:svg="http://www.w3.org/2000/svg"
   xmlns="http://www.w3.org/2000/svg"
   version="1.0"
   width="500"
   height="100"
   id="svg2"
   xml:space="preserve"><defs
     id="defs6" /><g
     transform="matrix(1.25,0,0,-1.25,-436.61879,681.88158)"
     id="g12"><path
       d="m 404.86714,486.38194 c -10.09462,0 -18.27708,8.17399 -18.27708,18.26861 0,10.09462 8.18246,18.27708 18.27708,18.27708 10.09462,0 18.27708,-8.18246 18.27708,-18.27708 0,-10.09462 -8.18246,-18.26861 -18.27708,-18.26861 m 0.0706,41.39528 c -12.76656,0 -23.12103,-10.35164 -23.12103,-23.12667 0,-12.76939 10.35447,-23.11821 23.12103,-23.11821 12.77786,0 23.13233,10.34882 23.13233,23.11821 0,12.77503 -10.35447,23.12667 -23.13233,23.12667"
       id="path24"
       style="fill:#7bc143;fill-opacity:1;fill-rule:nonzero;stroke:none" /><path
       d="m 392.82985,511.8919 0.68352,0.7739 c 0,0 5.65457,-1.52803 11.38257,-5.57266 9.69072,14.81429 30.91936,29.53255 30.91936,29.53255 l 2.04774,0 c 0,0 -24.01356,-20.91794 -32.9671,-43.82149 -3.91187,10.03813 -12.06609,19.0877 -12.06609,19.0877"
       id="path28"
       style="fill:#7bc143;fill-opacity:1;fill-rule:nonzero;stroke:none" /><path
       d="m 700.13673,488.95954 c -6.33809,0 -9.75286,4.83548 -9.75286,13.71558 0,5.78731 0.71741,10.14546 2.22285,12.92472 1.42353,2.69454 4.35814,4.43723 7.45375,4.43723 2.85835,0 4.44005,-0.6355 7.53566,-3.17187 l 3.40347,4.28188 c -2.8527,2.38102 -5.78732,4.28471 -10.78379,4.28471 -4.19997,0 -7.60909,-1.50544 -10.70187,-4.60105 -3.40913,-3.33286 -5.94267,-8.16268 -5.94267,-16.80836 0,-5.8664 1.18628,-10.22736 3.80173,-14.03474 2.77926,-3.96554 6.97641,-5.94548 12.61121,-5.94548 4.90891,0 8.39994,1.50543 12.04632,5.23372 l -3.40912,3.96554 c -2.29911,-2.77927 -5.31281,-4.28188 -8.48468,-4.28188 m -90.70753,-4.04745 6.58099,0 0,40.35871 -6.58099,-1.03093 0,-39.32778 z m 34.42452,22.83858 -5.2422,1.11001 c -2.37254,0.47451 -3.72264,1.10719 -4.60104,2.2172 -0.70612,0.87276 -1.10719,2.06468 -1.10719,3.49104 0,3.88363 2.93461,6.49908 7.45657,6.49908 3.49386,0 6.41718,-1.1891 9.90821,-2.85271 l 2.29628,4.59823 c -3.32721,1.90086 -7.92826,3.16904 -12.04914,3.16904 -8.24178,0 -14.03474,-4.99082 -14.03474,-12.12823 0,-2.61545 0.87276,-4.99365 2.53354,-6.89733 1.83025,-2.06186 3.88928,-3.17187 7.45657,-3.96554 l 4.92021,-1.02811 c 4.51914,-0.95184 6.49343,-2.93461 6.49343,-6.5019 0,-4.20562 -3.16622,-6.82107 -7.99887,-6.82107 -4.36379,0 -8.49032,1.26818 -12.53212,3.72546 l -2.3782,-4.59257 c 4.03898,-2.46293 9.51561,-3.96837 14.5149,-3.96837 8.87445,0 14.89902,5.23372 14.89902,12.92473 0,5.8664 -3.40347,9.43369 -10.53523,11.02104 m -53.36817,11.25547 0,0.55642 c 0,2.61545 -0.39825,3.80737 -1.35009,5.86923 l -6.18557,-1.66643 c 1.11002,-2.53637 1.42918,-4.2028 1.42918,-8.72193 l 0,-30.13134 6.18274,0 0,24.73662 c 0,3.2566 0.47451,4.44287 2.29629,6.26747 1.8246,1.82178 4.20279,2.85553 6.58099,2.85553 0.71741,0 0.95467,-0.0819 1.74269,-0.31916 l 2.54201,6.73634 c 0,0 -1.10718,0.40107 -2.14376,0.40107 -4.03898,0 -8.24177,-2.53919 -11.09448,-6.58382 m 78.02005,-24.41745 c -2.94026,0 -5.23372,-2.29911 -5.23372,-5.23373 0,-3.01087 2.37537,-5.4738 5.39472,-5.4738 2.84988,0 5.22807,2.46293 5.22807,5.4738 0,2.93462 -2.37819,5.23373 -5.38907,5.23373 m -55.73788,46.85779 c -2.69736,0 -4.8383,-2.22003 -4.8383,-4.91456 0,-2.61828 2.14094,-4.75922 4.8383,-4.75922 2.69171,0 4.83265,2.14094 4.83265,4.83548 0,2.69736 -2.14094,4.8383 -4.83265,4.8383 M 477.74159,525.43179 c -4.04463,0 -8.88293,-2.53637 -12.6903,-6.58099 -0.47451,1.34727 -0.79367,1.82177 -1.34727,2.61545 -1.73986,2.38102 -4.75639,3.96554 -7.84634,3.96554 -2.14095,0 -4.12372,-0.6355 -6.66291,-2.14377 -2.2172,-1.34726 -3.01369,-1.90086 -4.83547,-3.80172 l 0,0.31352 c 0,1.66643 -0.6355,3.96554 -1.42635,5.55006 l -6.02458,-1.42353 c 1.26819,-3.25378 1.42636,-4.12653 1.42636,-9.60034 l 0,-29.41392 5.94266,0 0,29.49866 c 4.12654,3.72546 7.05833,5.22807 10.07202,5.22807 1.82178,0 3.08996,-0.47451 4.04463,-1.5817 1.03093,-1.11001 1.11001,-1.66643 1.11001,-5.07555 l 0,-28.06948 6.25901,0 0,28.86315 0.71741,0.63551 c 1.42635,1.34444 2.77644,2.45445 3.96554,3.32721 1.82178,1.34727 3.88646,2.14094 5.78732,2.14094 3.32721,0 5.07555,-1.98277 5.07555,-5.78732 l 0,-29.17949 6.34091,0 0,29.81217 c 0,6.26748 -4.04462,10.70753 -9.9082,10.70753 M 365.86756,488.95954 c -6.34374,0 -9.75286,4.83548 -9.75286,13.71558 0,5.78731 0.71459,10.14546 2.22003,12.92472 1.42917,2.69454 4.35814,4.43723 7.45375,4.43723 2.8527,0 4.43722,-0.6355 7.53001,-3.17187 l 3.41194,4.28188 c -2.85552,2.38102 -5.79014,4.28471 -10.78378,4.28471 -4.19998,0 -7.61192,-1.50544 -10.70471,-4.60105 -3.41194,-3.33286 -5.94831,-8.16268 -5.94831,-16.80836 0,-5.8664 1.19475,-10.22736 3.81302,-14.03474 2.76797,-3.96554 6.97077,-5.94548 12.59992,-5.94548 4.92021,0 8.40559,1.50543 12.05197,5.23372 l -3.40913,3.96554 c -2.29628,-2.77927 -5.3128,-4.28188 -8.48185,-4.28188 m 198.68945,5.70823 c -1.81895,-3.72546 -5.55289,-6.18274 -9.59751,-6.18274 -4.51631,0 -6.81825,2.53354 -6.81825,7.21367 0,2.69736 0.71176,4.67731 2.22003,6.26465 1.98559,2.05903 5.31563,3.17187 11.34585,3.17187 1.10719,0 1.74269,-0.0819 3.08714,-0.16099 l -0.23726,-10.30646 z m 6.10366,1.03093 c 0,0.63268 0,1.26818 0.0819,1.82178 l 0.31916,13.00381 0,1.98277 c 0,3.64638 -0.16664,4.99082 -0.87841,6.73916 -1.65795,4.0418 -5.47097,6.18557 -10.93913,6.18557 -5.71106,0 -11.33456,-1.8246 -16.57393,-5.31281 l 3.09279,-4.44005 c 1.82742,1.42918 2.62109,1.97995 4.99646,2.93461 2.93462,1.26536 5.30716,1.7427 7.61475,1.7427 2.45445,0 4.0418,-0.71742 5.30716,-2.14095 1.11284,-1.26818 1.27383,-2.69735 1.27383,-6.18274 l 0,-2.77362 c -1.35292,0.0763 -1.82743,0.0763 -2.77927,0.0763 -13.23542,0 -20.92925,-5.23372 -20.92925,-14.19573 0,-2.53354 0.94902,-6.02175 3.17187,-8.08361 2.06186,-1.90651 4.52196,-3.17469 9.51278,-3.17469 4.51914,0 7.6091,1.50544 11.42212,5.31281 0.71176,-2.77362 2.69171,-4.91456 5.38907,-5.78732 l 3.16622,4.44288 c -2.53354,1.26818 -3.24813,3.01087 -3.24813,7.84917 m -45.90877,-1.74269 c -1.34162,-2.93744 -4.67731,-4.91739 -8.32368,-4.91739 -3.32722,0 -6.73634,1.82178 -9.67095,5.15464 l 0,19.89832 c 3.01087,3.64638 6.58099,5.54724 10.54653,5.54724 3.16904,0 6.02457,-1.6636 7.29275,-4.35814 1.1891,-2.29911 1.82743,-6.58099 1.82743,-11.33456 0,-4.44287 -0.47733,-7.45375 -1.67208,-9.99011 m -6.65443,31.23288 c -4.36096,0 -8.40559,-1.97995 -11.65372,-5.78732 l 0,1.03375 c 0,2.13812 -0.16099,3.80455 -0.39825,4.99647 l -6.42564,-1.11284 c 0.6355,-1.90086 0.95184,-5.15464 0.95184,-9.5156 l 0,-46.42847 6.18557,1.88109 0,18.22906 c 2.77361,-2.86118 6.82107,-4.60387 10.86287,-4.60387 5.15181,0 9.35461,2.6211 12.20731,7.21932 2.22285,3.64638 3.17752,7.29558 3.17752,13.63649 0,7.05268 -1.42918,11.89098 -4.36379,15.54018 -2.61545,3.09278 -6.50473,4.91174 -10.54371,4.91174 m 230.55783,-6.26183 c -1.18062,3.64638 -5.38342,6.26183 -10.14546,6.26183 -3.08996,0 -5.86923,-0.94902 -9.19644,-3.16622 -1.74834,-1.11284 -2.4601,-1.66643 -3.96554,-3.09561 0.16099,2.06468 0.2429,3.88646 0.2429,5.39189 l 0,9.19644 c 0,3.96837 -0.31916,6.50473 -1.03658,9.12018 l -6.18556,-1.18909 c 0.7965,-2.77362 1.0394,-4.44005 1.0394,-7.84918 l 0,-48.68521 6.18274,0 0,28.06948 c 3.40348,4.2028 7.69101,6.65725 11.49555,6.65725 1.98277,0 3.64638,-0.63268 4.5954,-1.5817 1.03375,-1.19192 1.50544,-2.93461 1.50544,-5.86922 l 0,-27.27581 6.1093,0 0,28.30674 c 0,2.85835 -0.15534,4.12371 -0.64115,5.70823"
       id="path32"
       style="fill:#7bc143;fill-opacity:1;fill-rule:nonzero;stroke:none" /></g></svg>